<?xml version="1.0" encoding="utf-8" ?><svg xmlns="http://www.w3.org/2000/svg" xmlns:xlink="http://www.w3.org/1999/xlink" width="1024" height="1024" viewBox="0 0 1024 1024"><defs><linearGradient id="gradient_0" gradientUnits="userSpaceOnUse" x1="92.298042" y1="359.46552" x2="447.16028" y2="527.94879"><stop offset="0" stop-color="#000A21"/><stop offset="1" stop-color="#010521"/></linearGradient></defs><path fill="url(#gradient_0)" d="M108.579 327.203C139.746 327.819 171.4 326.784 202.482 327.134C205.781 332.205 212.566 347.19 215.309 353.037C223.95 371.403 232.399 389.858 240.657 408.399L293.847 523.066C302.205 541.062 310.217 559.518 318.732 577.383L393.723 407.248C401.651 389.062 409.721 370.937 417.931 352.876C421.427 345.057 425.078 335.838 428.858 328.298C439.565 327.607 458.165 328.224 469.203 328.28L528.426 328.024C518.389 351.777 507.456 375.326 497.576 399.17C495.746 403.585 493.755 408.021 491.764 412.367C486.08 427.032 479.115 442.109 472.985 456.667L422.757 574.9L399.878 628.705C394.298 641.611 388.807 655.545 381.035 667.192C374.176 677.582 364.387 685.702 352.907 690.522C344.298 694.112 336.275 695.805 327.085 696.376C294.711 698.389 269.012 686.109 254.685 656.372C246.752 639.908 239.448 623.237 232.067 606.427L196.917 528.295L135.151 392.855L116.444 351.233C114.708 347.462 105.536 330.18 106.621 327.709L108.579 327.203Z"/><path fill="#010621" d="M664.15 327.736C665.761 327.553 670.443 327.578 672.263 327.577C694.633 327.565 716.93 327.5 739.306 327.664C788.105 328.023 834.46 327.617 871.812 364.789C909.664 402.46 915.798 458.124 916.946 508.715C918.084 558.837 909.377 624.216 872.238 661.478C857.633 675.854 839.43 686.036 819.536 690.957C801.608 695.431 783.946 695.031 765.67 695.087L723.648 695.142L608.334 695.394C610.309 689.875 614.001 682.14 616.471 676.602L631.505 642.802C636.828 631.007 641.92 619.108 646.777 607.114C654.438 606.843 665.266 607.252 673.238 607.27L733.243 607.336C756.981 607.307 780.849 609.049 803.7 601.156C845.07 586.865 851.648 539.37 850.245 501.282C849.736 487.449 847.388 475.871 842.878 462.745C826.238 414.314 770.389 421.757 729.593 421.694L698.093 421.858C675.812 421.838 659.402 418.105 649.489 442.495C642.262 443.523 620.182 442.824 611.702 442.738C589.342 442.496 566.981 442.38 544.62 442.388C548.925 431.668 553.426 421.027 558.122 410.472C569.554 384.161 580.208 356.081 605.996 340.493C624.425 329.353 643.35 328.635 664.15 327.736Z"/><path fill="#004C57" d="M476.699 581.027C510.326 581.742 544.948 580.38 578.174 581.327L554.116 636.87C545.816 655.44 537.768 674.123 529.976 692.912C529.784 693.429 529.079 695.189 528.376 695.212C520.77 695.457 513.149 695.09 505.529 695.06L428.405 695.014C430.745 687.271 434.263 679.553 437.472 672.111L452.228 638.117L468.506 599.73C470.732 594.531 474.168 585.631 476.699 581.027Z"/><path fill="#008B6F" d="M772.971 468.525C782.962 468.474 792.953 468.477 802.944 468.535C804.327 473.946 807.262 482.064 809.07 487.523C815.653 507.406 823.072 526.544 829.543 546.53C822.087 545.893 811.195 546.344 803.285 546.281L800.69 535.512C792.566 535.102 783.369 535.135 775.239 535.255C774.101 538.888 773.179 542.616 771.996 546.341C755.757 545.017 733.767 547.526 718.361 545.977C713.607 539.543 706.896 527.924 702.512 520.863C702.482 529.42 702.584 537.977 702.816 546.531C695.43 546.316 687.787 546.449 680.376 546.489L679.024 546.234C677.269 543.839 678.786 479.941 677.982 469.345C701.665 470.157 748.504 460.394 740.015 503.095C738.699 509.714 732.186 513.703 726.66 516.69L746.649 545.267C753.124 528.298 758.247 510.223 764.231 493.063C766.514 486.515 770 474.365 772.971 468.525ZM702.907 503.054C707.437 503.108 712.636 503.766 716.245 500.975C724.122 489.997 709.857 489.211 702.607 488.873C702.605 493.696 702.568 498.23 702.907 503.054ZM789.625 515.896L795.105 516.025C793.85 512.244 789.185 496.395 787.889 494.502C785.374 501.625 783.01 508.8 780.797 516.023L789.625 515.896Z"/><path fill="#008B6F" d="M612.835 469.265L613.457 469.233C617.039 469.068 623.072 469.346 626.89 469.399C636.402 469.781 651.564 467.738 658.899 475.781C669.064 486.926 664.806 496.128 655.988 504.855C670.269 512.657 676.26 525.82 664.303 539.055C655.247 548.16 639.587 546.52 627.826 546.496L605.017 546.449C605.486 520.911 605.034 494.864 605.139 469.28L612.835 469.265ZM644.078 526.871C651.378 514.864 637.123 515.384 629.527 515.337L629.717 528.821C635.094 528.724 639.299 529.229 644.078 526.871ZM629.649 498.073C633.396 498.036 636.351 498.11 640.005 497.07C642.534 487.94 639.148 487.414 630.766 487.158C630.346 487.146 629.927 487.137 629.507 487.13L629.649 498.073Z"/><path fill="#008B6F" d="M484.198 469.037C488.373 469.695 504.12 469.438 509.165 469.438C512.148 478.757 514.98 488.124 517.659 497.535C519.292 503.061 521.197 510.085 523.488 515.256C527.632 501.02 533.646 483.298 537.034 469.392C545.114 469.282 553.195 469.291 561.275 469.418C559.048 477.105 555.647 486.065 553.071 493.889C547.252 511.386 540.514 528.92 535.029 546.487L511.382 546.464C508.037 535.418 503.329 522.898 499.462 511.984C494.416 497.741 489.431 483.178 484.198 469.037Z"/><path fill="#008B6F" d="M592.023 469.405C592.429 469.82 592.361 539.217 592.466 546.47C584.644 546.413 576.821 546.411 568.998 546.466L568.259 546.138C568.008 542.744 568.038 538.863 568.066 535.432C568.246 513.34 568.369 491.438 568.037 469.346C576.032 469.427 584.028 469.447 592.023 469.405Z"/></svg>